<svg width="56" height="32" viewBox="0 0 56 32" fill="none" xmlns="http://www.w3.org/2000/svg">
<rect width="56" height="32" rx="16" fill="#FFEC70"/>
<rect x="4" y="4" width="24" height="24" rx="12" fill="#FFFDED"/>
<path d="M49.9417 19.2748C49.8083 19.0498 49.4333 18.6998 48.5 18.8665C47.9833 18.9581 47.4583 18.9998 46.9333 18.9748C44.9917 18.8915 43.2333 17.9998 42.0083 16.6248C40.925 15.4165 40.2583 13.8415 40.25 12.1415C40.25 11.1915 40.4333 10.2748 40.8083 9.40815C41.175 8.56648 40.9167 8.12481 40.7333 7.94148C40.5417 7.74981 40.0917 7.48315 39.2083 7.84981C35.8 9.28315 33.6917 12.6998 33.9417 16.3581C34.1917 19.7998 36.6083 22.7415 39.8083 23.8498C40.575 24.1165 41.3833 24.2748 42.2167 24.3081C42.35 24.3165 42.4833 24.3248 42.6167 24.3248C45.4083 24.3248 48.025 23.0081 49.675 20.7665C50.2333 19.9915 50.0833 19.4998 49.9417 19.2748Z" fill="#051724"/>
</svg>
