<svg width="56" height="32" viewBox="0 0 56 32" fill="none" xmlns="http://www.w3.org/2000/svg">
<rect width="56" height="32" rx="16" fill="#051724"/>
<path d="M14 21.8332C17.2217 21.8332 19.8333 19.2215 19.8333 15.9998C19.8333 12.7782 17.2217 10.1665 14 10.1665C10.7783 10.1665 8.16666 12.7782 8.16666 15.9998C8.16666 19.2215 10.7783 21.8332 14 21.8332Z" fill="#FFF194"/>
<path d="M14 25.1335C13.5417 25.1335 13.1667 24.7918 13.1667 24.3335V24.2668C13.1667 23.8085 13.5417 23.4335 14 23.4335C14.4583 23.4335 14.8333 23.8085 14.8333 24.2668C14.8333 24.7252 14.4583 25.1335 14 25.1335ZM19.95 22.7835C19.7333 22.7835 19.525 22.7002 19.3583 22.5418L19.25 22.4335C18.925 22.1085 18.925 21.5835 19.25 21.2585C19.575 20.9335 20.1 20.9335 20.425 21.2585L20.5333 21.3668C20.8583 21.6918 20.8583 22.2168 20.5333 22.5418C20.375 22.7002 20.1667 22.7835 19.95 22.7835ZM8.05 22.7835C7.83334 22.7835 7.625 22.7002 7.45834 22.5418C7.13334 22.2168 7.13334 21.6918 7.45834 21.3668L7.56667 21.2585C7.89167 20.9335 8.41667 20.9335 8.74167 21.2585C9.06667 21.5835 9.06667 22.1085 8.74167 22.4335L8.63334 22.5418C8.475 22.7002 8.25834 22.7835 8.05 22.7835ZM22.3333 16.8335H22.2667C21.8083 16.8335 21.4333 16.4585 21.4333 16.0002C21.4333 15.5418 21.8083 15.1668 22.2667 15.1668C22.725 15.1668 23.1333 15.5418 23.1333 16.0002C23.1333 16.4585 22.7917 16.8335 22.3333 16.8335ZM5.73334 16.8335H5.66667C5.20834 16.8335 4.83334 16.4585 4.83334 16.0002C4.83334 15.5418 5.20834 15.1668 5.66667 15.1668C6.125 15.1668 6.53334 15.5418 6.53334 16.0002C6.53334 16.4585 6.19167 16.8335 5.73334 16.8335ZM19.8417 10.9918C19.625 10.9918 19.4167 10.9085 19.25 10.7502C18.925 10.4252 18.925 9.90016 19.25 9.57516L19.3583 9.46683C19.6833 9.14183 20.2083 9.14183 20.5333 9.46683C20.8583 9.79183 20.8583 10.3168 20.5333 10.6418L20.425 10.7502C20.2667 10.9085 20.0583 10.9918 19.8417 10.9918ZM8.15834 10.9918C7.94167 10.9918 7.73334 10.9085 7.56667 10.7502L7.45834 10.6335C7.13334 10.3085 7.13334 9.7835 7.45834 9.4585C7.78334 9.1335 8.30834 9.1335 8.63334 9.4585L8.74167 9.56683C9.06667 9.89183 9.06667 10.4168 8.74167 10.7418C8.58334 10.9085 8.36667 10.9918 8.15834 10.9918ZM14 8.5335C13.5417 8.5335 13.1667 8.19183 13.1667 7.7335V7.66683C13.1667 7.2085 13.5417 6.8335 14 6.8335C14.4583 6.8335 14.8333 7.2085 14.8333 7.66683C14.8333 8.12516 14.4583 8.5335 14 8.5335Z" fill="#FFF194"/>
<rect x="28" y="4" width="24" height="24" rx="12" fill="white"/>
</svg>
