<svg width="83" height="69" viewBox="0 0 83 69" fill="none" xmlns="http://www.w3.org/2000/svg">
<g clip-path="url(#clip0_2_7105)">
<path d="M1.16478 0C-1.36808 7.53326 -1.42436 24.0123 18.6133 29.6622C32.8522 33.6771 39.6919 40.3072 42.5255 45.4979C44.3198 48.7848 44.8175 52.7322 47.0439 55.7432C52.9189 63.6885 65.2591 70.6286 83.9047 56.217" stroke="white" stroke-width="1.104"/>
<path d="M10.5488 -7.17578C8.01596 -0.350774 7.95967 14.5789 27.9973 19.6977C41.4034 23.1224 48.2506 28.6474 51.3706 33.2068C53.6771 36.5774 54.3161 40.9656 57.0215 44.0253C63.1121 50.9134 75.2495 56.388 93.2888 43.7558" stroke="white" stroke-width="1.104"/>
<path d="M18.2768 -17.6641C15.744 -11.0966 15.6877 3.26972 35.7254 8.19531C48.7931 11.4076 55.6288 16.5402 58.8552 20.8607C61.3815 24.2437 62.097 28.8168 65.0049 31.8781C71.1759 38.375 83.2261 43.3335 101.017 31.3456" stroke="white" stroke-width="1.104"/>
<path d="M32.0769 -23.7363C29.544 -17.1689 29.4877 -2.80255 49.5254 2.12305C62.5931 5.33531 69.4288 10.4679 72.6552 14.7884C75.1816 18.1714 75.8971 22.7445 78.8049 25.8059C84.9759 32.3027 97.0262 37.2613 114.817 25.2733" stroke="white" stroke-width="1.104"/>
</g>
<defs>
<clipPath id="clip0_2_7105">
<rect width="82.8" height="69" fill="white"/>
</clipPath>
</defs>
</svg>
